<svg width="64" height="64" version="1.1" xmlns="http://www.w3.org/2000/svg" xmlns:xlink="http://www.w3.org/1999/xlink">
 <g transform="translate(0 -988.36)">
  <path transform="translate(0 988.36)" d="m30.219 3.375c-1.5819-0.016226-3.1747 0.11224-4.875 0.5v4.7812c-1.5632 2.2064-2.7955 5.4952-9.0312 3.9688l-3.3125-3.3125c-2.4325 1.8553-4.0512 3.5634-5.7188 5.8125l3.1562 3.1562c2.2899 5.172-0.33895 7.389-3.7188 9.125h-4.6562c-0.64258 3.2025-0.40464 6.4227-0.03125 9.625h4.5312c4.7118 1.6546 5.0812 4.9512 3.875 8.9688l-3.2188 3.2188c0.95943 1.3821 3.4365 4.2074 5.7812 5.9062l3.3438-3.3438c4.3938-0.4699 7.1634 0.21435 9 4.0312v4.75c3.1293 0.5157 6.2936 0.6855 9.5938 0.0625v-4.7812c1.5913-3.7824 4.9002-4.6022 9.0312-4.0312l3.5938 3.5938c2.8054-2.1875 4.3389-3.6534 5.8125-5.7188l-3.5625-3.5625c-0.68316-3.2655-1.5433-6.7038 3.9062-9.0938h5.1875c0.48772-3.2389 0.57518-6.4667 0-9.625h-5.2812c-5.0826-2.211-4.456-5.6706-3.875-9.0312l3.6562-3.6562c-1.579-2.5203-3.7201-4.1874-5.9375-5.75l-3.5312 3.5c-4.2897 1.2829-7.118-0.32941-9-3.7812v-4.9375c-1.5792-0.18074-3.1369-0.35877-4.7188-0.375zm0.375 18.844c3.6611-0.01889 7.2367 1.9101 9.125 5.3438 2.7466 4.9944 0.90065 11.285-4.0938 14.031s-11.253 0.90065-14-4.0938-0.9319-11.253 4.0625-14c1.5607-0.85831 3.2421-1.2727 4.9062-1.2812z" fill="#000"/>
 </g>
</svg>
