<?xml version="1.0" encoding="UTF-8" standalone="no"?>
<svg
   width="57.643372"
   height="57.651394"
   version="1.1"
   id="svg6"
   sodipodi:docname="gear.svg"
   inkscape:version="1.2.2 (b0a8486541, 2022-12-01)"
   xmlns:inkscape="http://www.inkscape.org/namespaces/inkscape"
   xmlns:sodipodi="http://sodipodi.sourceforge.net/DTD/sodipodi-0.dtd"
   xmlns="http://www.w3.org/2000/svg"
   xmlns:svg="http://www.w3.org/2000/svg">
  <defs
     id="defs10" />
  <sodipodi:namedview
     id="namedview8"
     pagecolor="#ffffff"
     bordercolor="#000000"
     borderopacity="0.25"
     inkscape:showpageshadow="2"
     inkscape:pageopacity="0.0"
     inkscape:pagecheckerboard="0"
     inkscape:deskcolor="#d1d1d1"
     showgrid="false"
     inkscape:zoom="7.2666356"
     inkscape:cx="45.963499"
     inkscape:cy="21.674405"
     inkscape:window-width="956"
     inkscape:window-height="1090"
     inkscape:window-x="960"
     inkscape:window-y="84"
     inkscape:window-maximized="1"
     inkscape:current-layer="svg6" />
  <g
     transform="translate(-1.6622371,-991.73365)"
     id="g4"
     style="fill:#000000;fill-opacity:1">
    <path
       transform="translate(0,988.36)"
       d="m 30.219,3.375 c -1.5819,-0.016226 -3.1747,0.11224 -4.875,0.5 v 4.7812 c -1.5632,2.2064 -2.7955,5.4952 -9.0312,3.9688 L 13.0003,9.3125 c -2.4325,1.8553 -4.0512,3.5634 -5.7188,5.8125 l 3.1562,3.1562 c 2.2899,5.172 -0.33895,7.389 -3.7188,9.125 H 2.0627 c -0.64258,3.2025 -0.40464,6.4227 -0.03125,9.625 h 4.5312 c 4.7118,1.6546 5.0812,4.9512 3.875,8.9688 l -3.2188,3.2188 c 0.95943,1.3821 3.4365,4.2074 5.7812,5.9062 l 3.3438,-3.3438 c 4.3938,-0.4699 7.1634,0.21435 9,4.0312 v 4.75 c 3.1293,0.5157 6.2936,0.6855 9.5938,0.0625 v -4.7812 c 1.5913,-3.7824 4.9002,-4.6022 9.0312,-4.0312 l 3.5938,3.5938 c 2.8054,-2.1875 4.3389,-3.6534 5.8125,-5.7188 l -3.5625,-3.5625 c -0.68316,-3.2655 -1.5433,-6.7038 3.9062,-9.0938 h 5.1875 c 0.48772,-3.2389 0.57518,-6.4667 0,-9.625 h -5.2812 c -5.0826,-2.211 -4.456,-5.6706 -3.875,-9.0312 l 3.6562,-3.6562 c -1.579,-2.5203 -3.7201,-4.1874 -5.9375,-5.75 l -3.5312,3.5 c -4.2897,1.2829 -7.118,-0.32941 -9,-3.7812 V 3.7501 c -1.5792,-0.18074 -3.1369,-0.35877 -4.7188,-0.375 z m 0.375,18.844 c 3.6611,-0.01889 7.2367,1.9101 9.125,5.3438 2.7466,4.9944 0.90065,11.285 -4.0938,14.031 -4.99445,2.746 -11.253,0.90065 -14,-4.0938 -2.747,-4.99445 -0.9319,-11.253 4.0625,-14 1.5607,-0.85831 3.2421,-1.2727 4.9062,-1.2812 z"
       fill="#000000"
       id="path2"
       style="fill:#000000;fill-opacity:1" />
  </g>
</svg>
