<?xml version="1.0" encoding="UTF-8"?>
<svg xmlns="http://www.w3.org/2000/svg" xmlns:xlink="http://www.w3.org/1999/xlink" width="43" height="43" viewBox="0 0 43 43">
<path fill-rule="evenodd" fill="#c1670c" fill-opacity="1" d="M 41.820312 21.824219 C 41.820312 10.492188 32.628906 1.300781 21.296875 1.300781 C 9.960938 1.300781 0.769531 10.492188 0.769531 21.824219 C 0.769531 33.160156 9.960938 42.351562 21.296875 42.351562 C 32.628906 42.351562 41.820312 33.160156 41.820312 21.824219 Z M 41.820312 21.824219 " stroke-opacity="0" stroke-width="0"/>
<path fill="none" stroke-width="5" stroke-linecap="butt" stroke-linejoin="round" stroke="#002b36" stroke-opacity="1" stroke-miterlimit="10" d="M 172.835938 524.765625 C 172.835938 528.132812 167.75 528.132812 167.75 524.765625 C 167.75 521.394531 172.835938 521.394531 172.835938 524.765625 Z M 172.835938 524.765625 " transform="matrix(1, 0, 0, -1, -162, 547)"/>
<path fill="none" stroke-width="5" stroke-linecap="butt" stroke-linejoin="round" stroke="#002b36" stroke-opacity="1" stroke-miterlimit="10" d="M 180.785156 536.273438 C 180.785156 539.4375 176.011719 539.4375 176.011719 536.273438 C 176.011719 533.109375 180.785156 533.109375 180.785156 536.273438 Z M 180.785156 536.273438 " transform="matrix(1, 0, 0, -1, -162, 547)"/>
<path fill="none" stroke-width="5" stroke-linecap="butt" stroke-linejoin="round" stroke="#002b36" stroke-opacity="1" stroke-miterlimit="10" d="M 193.457031 531.886719 C 193.457031 535.160156 188.519531 535.160156 188.519531 531.886719 C 188.519531 528.613281 193.457031 528.613281 193.457031 531.886719 Z M 193.457031 531.886719 " transform="matrix(1, 0, 0, -1, -162, 547)"/>
<path fill="none" stroke-width="5" stroke-linecap="butt" stroke-linejoin="round" stroke="#002b36" stroke-opacity="1" stroke-miterlimit="10" d="M 180.050781 513.46875 C 180.050781 515.375 177.179688 515.375 177.179688 513.46875 C 177.179688 511.566406 180.050781 511.566406 180.050781 513.46875 Z M 180.050781 513.46875 " transform="matrix(1, 0, 0, -1, -162, 547)"/>
<path fill="none" stroke-width="5" stroke-linecap="butt" stroke-linejoin="round" stroke="#002b36" stroke-opacity="1" stroke-miterlimit="10" d="M 192.988281 517.785156 C 192.988281 521.011719 188.121094 521.011719 188.121094 517.785156 C 188.121094 514.5625 192.988281 514.5625 192.988281 517.785156 Z M 192.988281 517.785156 " transform="matrix(1, 0, 0, -1, -162, 547)"/>
<path fill="none" stroke-width="5" stroke-linecap="butt" stroke-linejoin="round" stroke="#002b36" stroke-opacity="1" stroke-miterlimit="10" d="M 200.0625 524.980469 C 200.0625 528.472656 194.792969 528.472656 194.792969 524.980469 C 194.792969 521.488281 200.0625 521.488281 200.0625 524.980469 Z M 200.0625 524.980469 " transform="matrix(1, 0, 0, -1, -162, 547)"/>
<path fill="none" stroke-width="5" stroke-linecap="butt" stroke-linejoin="round" stroke="#002b36" stroke-opacity="1" stroke-miterlimit="10" d="M 195.792969 522.929688 L 192.628906 519.050781 " transform="matrix(1, 0, 0, -1, -162, 547)"/>
<path fill="none" stroke-width="5" stroke-linecap="butt" stroke-linejoin="round" stroke="#002b36" stroke-opacity="1" stroke-miterlimit="10" d="M 188.441406 516.585938 L 180 513.851562 " transform="matrix(1, 0, 0, -1, -162, 547)"/>
<path fill="none" stroke-width="5" stroke-linecap="butt" stroke-linejoin="round" stroke="#002b36" stroke-opacity="1" stroke-miterlimit="10" d="M 177.644531 514.523438 L 171.570312 522.578125 " transform="matrix(1, 0, 0, -1, -162, 547)"/>
<path fill="none" stroke-width="5" stroke-linecap="butt" stroke-linejoin="round" stroke="#002b36" stroke-opacity="1" stroke-miterlimit="10" d="M 171.347656 527.0625 L 176.835938 534.480469 " transform="matrix(1, 0, 0, -1, -162, 547)"/>
<path fill="none" stroke-width="5" stroke-linecap="butt" stroke-linejoin="round" stroke="#002b36" stroke-opacity="1" stroke-miterlimit="10" d="M 180.765625 535.988281 L 188.695312 532.796875 " transform="matrix(1, 0, 0, -1, -162, 547)"/>
</svg>
