<?xml version="1.0" encoding="UTF-8" standalone="no"?>
<!-- Created with Inkscape (http://www.inkscape.org/) -->

<svg
   width="210mm"
   height="297mm"
   viewBox="0 0 210 297"
   version="1.1"
   id="svg5"
   inkscape:version="1.1.2 (0a00cf5339, 2022-02-04)"
   sodipodi:docname="you.svg"
   xmlns:inkscape="http://www.inkscape.org/namespaces/inkscape"
   xmlns:sodipodi="http://sodipodi.sourceforge.net/DTD/sodipodi-0.dtd"
   xmlns="http://www.w3.org/2000/svg"
   xmlns:svg="http://www.w3.org/2000/svg">
  <sodipodi:namedview
     id="namedview7"
     pagecolor="#ffffff"
     bordercolor="#666666"
     borderopacity="1.0"
     inkscape:pageshadow="2"
     inkscape:pageopacity="0.0"
     inkscape:pagecheckerboard="0"
     inkscape:document-units="mm"
     showgrid="false"
     objecttolerance="1"
     guidetolerance="1"
     inkscape:zoom="0.60116928"
     inkscape:cx="60.715011"
     inkscape:cy="684.49938"
     inkscape:window-width="1846"
     inkscape:window-height="1016"
     inkscape:window-x="74"
     inkscape:window-y="27"
     inkscape:window-maximized="1"
     inkscape:current-layer="layer1" />
  <defs
     id="defs2" />
  <g
     inkscape:label="Layer 1"
     inkscape:groupmode="layer"
     id="layer1">
    <path
       style="fill:none;stroke:#000000;stroke-width:0.264583px;stroke-linecap:butt;stroke-linejoin:miter;stroke-opacity:1"
       d="m 62.551357,128.31834 c 3.091775,11.95476 1.532064,20.66993 -3.932817,31.59969"
       id="path75" />
    <path
       style="fill:none;stroke:#000000;stroke-width:0.264583px;stroke-linecap:butt;stroke-linejoin:miter;stroke-opacity:1"
       d="m 71.129953,126.75444 c -0.559639,0.57495 -1.352124,0.99208 -1.678914,1.72487 -1.227256,2.75197 -1.047768,7.59079 -1.034962,10.51025 0.03218,7.3363 0.161771,17.81483 8.900596,19.91653"
       id="path77" />
    <path
       style="fill:none;stroke:#000000;stroke-width:0.264583px;stroke-linecap:butt;stroke-linejoin:miter;stroke-opacity:1"
       d="m 58.802521,97.937528 c -0.415888,4.670462 -0.9714,9.326152 -1.517939,13.982992 -0.01762,0.15023 -0.813173,6.56382 -0.87394,6.96849 -0.474376,3.15907 -0.546237,3.38781 -1.103947,5.95657 -0.190934,0.87942 -1.121611,2.11182 -0.413988,2.6678 0.25392,0.19951 2.959279,-1.39157 3.12784,-1.47188 4.680871,-2.23042 10.388232,-2.58117 15.524287,-2.75981 1.433608,-0.0499 5.529564,-0.49203 6.462712,1.21891 0.02867,0.0526 -0.100777,-0.0798 -0.114996,-0.13799 -0.317047,-1.29709 -0.159326,-0.6093 -0.390985,-2.23083 -0.314243,-2.19961 -0.337725,-2.21153 -0.919946,-5.03664 -1.284041,-6.23057 -3.445274,-12.2509 -4.668803,-18.490656 -0.373107,-1.902767 -0.07562,-6.434402 -0.551963,-7.704442 -0.0903,-0.240752 -0.08757,0.50681 -0.137996,0.758947"
       id="path79" />
    <path
       style="fill:none;stroke:#000000;stroke-width:0.264583px;stroke-linecap:butt;stroke-linejoin:miter;stroke-opacity:1"
       d="m 58.802521,97.937528 c -0.176329,-0.850937 0.09572,-1.948717 -0.528984,-2.552811 -0.395605,-0.382553 -1.042162,0.353983 -1.563921,0.52896 -0.735515,0.246663 -1.480351,0.466691 -2.207897,0.735954 -4.437404,1.64228 -8.851736,3.449519 -13.063398,5.611589 -0.644178,0.33069 -3.624892,2.43074 -4.438795,2.02386 -0.167873,-0.0839 -1.376378,-7.877725 -1.402924,-8.25641 -0.08553,-1.220248 0.161483,-9.282951 -0.298995,-10.050269 -0.216331,-0.360487 -0.415248,1.666208 1.03496,2.000858 1.533649,0.353904 2.542035,0.166236 4.070816,-0.114993 5.892413,-1.083953 11.794204,-2.984023 17.847174,-2.828795"
       id="path81" />
    <path
       style="fill:none;stroke:#000000;stroke-width:0.264583px;stroke-linecap:butt;stroke-linejoin:miter;stroke-opacity:1"
       d="m 72.90088,82.965625 c 3.342349,-0.04169 6.657197,-0.411628 9.981539,-0.712952 3.997163,-0.362307 11.753596,-1.430226 15.524286,-0.298984 0.258488,0.07755 -0.170021,0.477105 -0.184001,0.528971 -0.19176,0.711351 -0.372034,1.430361 -0.459976,2.161836 -0.178472,1.484516 -0.07065,2.989622 -0.09201,4.484674 -0.01503,1.051452 0.498792,7.161541 -0.390965,7.42846 -0.588465,0.176536 -6.572826,-1.287637 -7.382658,-1.4029 -4.31456,-0.614098 -8.385349,-1.642779 -12.626427,-2.575806 -3.308069,-0.727763 3.297494,1.862302 -4.04781,-0.919937"
       id="path83" />
    <path
       style="fill:none;stroke:#000000;stroke-width:0.264583px;stroke-linecap:butt;stroke-linejoin:miter;stroke-opacity:1"
       d="m 63.540311,64.934932 c -3.499072,-0.108383 -6.05437,2.191793 -8.095641,4.898639 -3.641619,4.829008 0.927949,11.20843 5.634754,13.431028 2.302642,1.087329 5.974638,0.276788 8.049615,-0.942928 6.136433,-3.607128 5.87375,-14.159639 -0.873961,-17.018767 -1.877658,-0.795599 -2.728177,-0.496731 -4.714767,-0.367972 z"
       id="path85" />
    <path
       style="fill:none;stroke:#000000;stroke-width:0.264583px;stroke-linecap:butt;stroke-linejoin:miter;stroke-opacity:1"
       d="m 72.90088,82.965625 c -0.107333,-1.571554 -0.3297,-3.139464 -0.322,-4.714658 9.55e-4,-0.195453 0.503474,0.0592 0.528984,0.252979 0.120319,0.914236 -0.427368,2.013167 -0.528984,2.89779 -0.163439,1.422834 0.69955,11.618476 3.863832,10.418242 0.718624,-0.272579 0.829848,-1.510337 0.850958,-2.115852 0.201054,-5.762453 1.567519,-11.710622 0.712962,-17.478729 -1.174662,-7.928772 -5.626192,-15.07503 -14.581314,-13.316024 -2.228707,0.437771 -4.338645,1.444939 -6.278711,2.598806 -6.150072,3.657804 -7.160654,9.666081 -7.014675,16.351813 0.102359,4.687956 0.324561,9.451224 1.379921,14.028984 0.283653,-0.935267 0.507295,-1.89088 0.850958,-2.8058 0.916044,-2.438742 2.295115,-4.829319 3.633843,-7.060488 0.834838,-1.391367 0.768496,-1.176337 1.540919,-2.299833 0.05065,-0.07367 0.126104,-0.318596 0.137996,-0.229987 0.247066,1.840945 0.383325,3.695069 0.574988,5.542603"
       id="path87" />
    <path
       style="fill:none;stroke:#000000;stroke-width:0.264583px;stroke-linecap:butt;stroke-linejoin:miter;stroke-opacity:1"
       d="m 319.29937,256.43119 c -2.90224,0.0871 -5.74833,0.69003 -8.623,1.03509"
       id="path89" />
    <path
       style="fill:none;stroke:#000000;stroke-width:0.264583px;stroke-linecap:butt;stroke-linejoin:miter;stroke-opacity:1"
       d="m 34.423646,91.199016 c -3.448095,-0.772146 -13.710026,3.201985 -13.408379,7.198485 0.268984,3.563739 10.895927,3.865239 13.293386,3.656729"
       id="path91" />
    <path
       style="fill:none;stroke:#000000;stroke-width:0.264583px;stroke-linecap:butt;stroke-linejoin:miter;stroke-opacity:1"
       d="m 99.303648,87.19731 c 3.194882,-1.925333 16.450422,-5.816267 17.180222,0.919935 0.14507,1.339019 -0.61478,2.69109 -1.56395,3.564736 -3.61362,3.326101 -7.95965,2.237685 -12.16643,1.448896"
       id="path93" />
    <path
       style="fill:none;stroke:#000000;stroke-width:0.264583px;stroke-linecap:butt;stroke-linejoin:miter;stroke-opacity:1"
       d="m 62.551357,128.31834 c 0.605935,1.20446 0.595283,2.04622 0,0 z"
       id="path95" />
    <path
       style="fill:none;stroke:#000000;stroke-width:0.264583px;stroke-linecap:butt;stroke-linejoin:miter;stroke-opacity:1"
       d="m 62.551357,128.31834 c 0.367982,-0.16866 0.919231,-0.86616 1.103947,-0.50597 0.568264,1.10809 -0.221898,2.48158 -0.275992,3.72571 -0.02204,0.50723 -0.01643,1.50771 -0.04601,2.06986 -0.01135,0.21558 -0.09047,0.85876 -0.06899,0.64395 0.02005,-0.20047 0.138753,-1.21341 0.137996,-1.21892 -0.21754,-1.58205 -0.567306,-3.14309 -0.850958,-4.71463"
       id="path97" />
    <path
       style="fill:none;stroke:#000000;stroke-width:0.264583px;stroke-linecap:butt;stroke-linejoin:miter;stroke-opacity:1"
       d="m 62.551349,128.31834 c -0.636304,-0.0154 -1.458841,-0.49607 -1.908916,-0.046 -0.440417,0.4404 -1.607338,9.00426 -1.724919,9.72829 -0.710563,4.37541 -1.766406,8.47903 -2.805867,12.78707 -0.49114,2.03552 -0.669856,3.27742 -0.919967,5.28962 -0.07132,0.57381 -0.116421,1.15062 -0.18398,1.72488 -0.01445,0.12276 -0.08368,0.48569 -0.04601,0.36796 0.643901,-2.01205 -0.625234,-1.28636 3.656846,1.74788"
       id="path99" />
    <path
       style="fill:none;stroke:#000000;stroke-width:0.264583px;stroke-linecap:butt;stroke-linejoin:miter;stroke-opacity:1"
       d="m 58.61854,159.91803 c -0.659305,-1.27257 -1.013809,-2.75723 -1.977911,-3.81771 -0.554514,-0.60996 -12.697484,0.69168 -13.339392,3.33473 -0.564039,2.32244 6.689288,3.36763 8.026635,3.12778 2.556886,-0.45856 5.020778,-1.41789 7.290668,-2.6448 z"
       id="path101" />
    <path
       style="fill:none;stroke:#000000;stroke-width:0.264583px;stroke-linecap:butt;stroke-linejoin:miter;stroke-opacity:1"
       d="m 77.316673,158.90609 c -0.766638,0.069 -2.368905,-0.55965 -2.299909,0.20699 0.069,0.76663 1.533641,-0.27997 2.299909,-0.20699 6.115928,0.58247 0.490892,0.97837 4.852763,0.52896 3.001221,-0.30921 1.0655,-0.15907 4.576791,-0.34495 1.774,-0.0939 5.218446,-0.30615 1.793931,-2.66781 -1.75041,-1.20714 -3.946909,-1.63719 -6.048725,-1.4259 -0.632118,0.0635 -6.655564,1.9564 -6.462712,2.23083 0.405535,0.57709 0.858634,1.11925 1.287952,1.67887"
       id="path103" />
    <path
       style="fill:none;stroke:#000000;stroke-width:0.264583px;stroke-linecap:butt;stroke-linejoin:miter;stroke-opacity:1"
       d="m 77.316673,158.90609 c -0.306657,-1.7632 -0.367215,-3.58743 -0.919969,-5.2896 -0.149469,-0.46028 -0.774505,-0.58843 -1.103948,-0.94293 -1.211035,-1.30314 -2.002867,-3.09886 -2.437881,-4.80665 -1.37854,-5.41187 -0.854578,-11.20851 -1.01196,-16.7428 -0.03314,-1.1654 -0.114993,-2.32986 -0.114993,-3.49573 0,-0.46055 0.48093,-1.58586 0.06901,-1.3799 -0.249597,0.12479 -0.444651,0.33731 -0.666977,0.50596"
       id="path105" />
    <path
       style="fill:none;stroke:#000000;stroke-width:0.264583px;stroke-linecap:butt;stroke-linejoin:miter;stroke-opacity:1"
       d="m 102.75349,93.130877 c 1.62526,-1.79387 3.46028,-3.417991 4.87579,-5.381604 0.19531,-0.270944 -1.82952,-9.717844 -3.05888,-10.947204 -0.47517,-0.475168 -1.2964,-1.210937 -0.36798,-1.793875 1.26675,-0.795377 3.06187,-0.640511 4.4848,-0.850937 5.6968,-0.84246 10.98781,-0.538943 16.69724,-0.114993 0.52597,0.03905 4.11191,0.549259 4.34681,-0.390964 0.006,-0.02529 -0.38035,-0.02299 -0.41401,-0.02299 -0.22815,0 -0.84572,-0.113535 -1.03494,0 -0.11536,0.06921 -0.0483,0.557893 -0.046,0.643954 0.0597,2.266857 -0.42114,4.539445 -1.03494,6.715519 -1.71453,6.0784 -2.47435,11.860503 -2.71387,18.168678 -0.24195,6.372069 1.23289,13.187709 2.55287,19.410579 0.13118,0.61844 0.55652,4.217 1.63293,4.00172 0.74047,-0.1481 1.1948,-0.93445 1.51794,-1.5179 2.87412,-5.18941 -4.26424,-13.25642 -4.71481,-7.40545"
       id="path107" />
    <path
       style="fill:none;stroke:#000000;stroke-width:0.264583px;stroke-linecap:butt;stroke-linejoin:miter;stroke-opacity:1"
       d="m 102.75349,93.130877 c 0.33732,0.521295 0.90122,0.952931 1.01196,1.563891 0.13181,0.72725 -0.59256,5.359892 -0.64398,6.462532 -0.26681,5.72165 0.0236,11.33511 2.43788,16.62779 0.61477,1.3477 1.6364,4.00752 3.24286,4.48467 3.00372,0.89217 4.93856,-1.50577 3.81782,-4.43867 -0.83103,-2.17479 -3.13136,-4.50457 -4.25479,-5.5656"
       id="path109" />
    <path
       style="fill:none;stroke:#000000;stroke-width:0.264583px;stroke-linecap:butt;stroke-linejoin:miter;stroke-opacity:1"
       d="m 115.67889,121.51082 c 2.95341,-0.94631 6.07456,-0.97418 9.10758,-1.47189 0.77891,-0.12782 1.54932,-0.30301 2.32289,-0.45996 0.40095,-0.0814 1.35819,0.0996 1.19594,-0.27599 -0.83619,-1.93556 -1.88591,-3.77171 -2.82886,-5.65757"
       id="path111" />
    <path
       style="fill:none;stroke:#000000;stroke-width:0.264583px;stroke-linecap:butt;stroke-linejoin:miter;stroke-opacity:1"
       d="m 108.36524,112.26549 c 4.87496,0.0641 9.75158,0.092 14.62732,0.092 0.782,0 1.56403,-0.008 2.34589,-0.023 0.11027,-0.002 1.69863,-0.0683 1.67894,-0.046 -0.45253,0.51345 -1.0273,0.90461 -1.54095,1.35692"
       id="path113" />
    <path
       style="fill:none;stroke:#000000;stroke-width:0.264583px;stroke-linecap:butt;stroke-linejoin:miter;stroke-opacity:1"
       d="m 105.12238,83.080608 c 0.16777,-1.541354 -0.20999,-3.014692 -0.34498,-4.530667 -0.0377,-0.42305 -0.2402,-2.613033 -0.092,-3.311761 1.15688,-5.453731 10.15125,-1.235374 10.97048,2.253838 0.32971,1.404284 -0.84734,2.494124 -1.65591,3.40375"
       id="path115" />
    <path
       style="fill:none;stroke:#000000;stroke-width:0.264583px;stroke-linecap:butt;stroke-linejoin:miter;stroke-opacity:1"
       d="m 125.17746,74.157257 c 1.90674,-1.156573 3.44347,-1.03931 5.61173,-0.505957 7.52974,1.852183 2.95192,8.991295 -2.59888,9.291322"
       id="path117" />
    <path
       style="fill:none;stroke:#000000;stroke-width:0.264583px;stroke-linecap:butt;stroke-linejoin:miter;stroke-opacity:1"
       d="m 113.99997,80.895766 c 1.29561,0.919937 2.38909,2.229051 3.88682,2.759808 0.81331,0.288218 7.32982,-1.090372 8.55559,-1.287907 0.92951,-0.149792 1.85242,-0.339373 2.78291,-0.482965 0.3121,-0.04816 1.16377,-0.317741 0.94292,-0.092 -0.53331,0.545139 -1.3186,0.766614 -1.9779,1.149921"
       id="path119" />
    <path
       style="fill:none;stroke:#000000;stroke-width:0.765;stroke-linecap:butt;stroke-linejoin:miter;stroke-opacity:1;stroke-miterlimit:4;stroke-dasharray:none"
       d="m 101.13217,186.70251 c -2.185474,0.40345 -5.063847,1.26428 -5.922232,3.55324 -2.461979,6.5651 8.346262,12.32653 13.603872,8.98085 2.8006,-1.78216 6.09506,-6.68289 3.19686,-9.88928 -2.12426,-2.35016 -7.96292,-3.18306 -10.8785,-2.64481 z"
       id="path129"
       inkscape:export-filename="/home/vasek/path129.png"
       inkscape:export-xdpi="200"
       inkscape:export-ydpi="200" />
    <path
       style="fill:none;stroke:#000000;stroke-width:0.765;stroke-linecap:butt;stroke-linejoin:miter;stroke-opacity:1;stroke-miterlimit:4;stroke-dasharray:none"
       d="m 103.73105,200.44402 c 0.36946,1.11941 0.59303,2.94871 -0.22999,3.77172"
       id="path131"
       inkscape:export-filename="/home/vasek/path129.png"
       inkscape:export-xdpi="200"
       inkscape:export-ydpi="200" />
    <path
       style="fill:none;stroke:#000000;stroke-width:0.765;stroke-linecap:butt;stroke-linejoin:miter;stroke-opacity:1;stroke-miterlimit:4;stroke-dasharray:none"
       d="m 103.50106,204.21574 c 1.13109,0.57874 1.32354,1.65326 1.79392,2.7368 1.53219,3.52944 2.57183,7.22477 4.38129,10.62523 2.59758,4.88153 6.5449,9.78434 7.94613,15.15589"
       id="path141"
       inkscape:export-filename="/home/vasek/path129.png"
       inkscape:export-xdpi="200"
       inkscape:export-ydpi="200" />
    <path
       style="fill:none;stroke:#000000;stroke-width:0.765;stroke-linecap:butt;stroke-linejoin:miter;stroke-opacity:1;stroke-miterlimit:4;stroke-dasharray:none"
       d="m 83.882967,232.52668 c 0.241488,0.34498 0.399317,0.76734 0.724464,1.03493 0.725093,0.59674 4.002627,-0.38757 5.048268,-0.25298 3.054821,0.39321 6.026232,0.006 9.107583,0.17248 5.073518,0.27423 10.000138,0.9502 15.098798,0.83945 1.82759,-0.0397 3.29577,0.2197 3.76032,-1.5869"
       id="path143"
       inkscape:export-filename="/home/vasek/path129.png"
       inkscape:export-xdpi="200"
       inkscape:export-ydpi="200" />
    <path
       style="fill:none;stroke:#000000;stroke-width:0.765;stroke-linecap:butt;stroke-linejoin:miter;stroke-opacity:1;stroke-miterlimit:4;stroke-dasharray:none"
       d="m 98.866774,210.62077 c -7.224747,-0.45966 -16.413282,3.07198 -4.887278,7.61245"
       id="path145"
       inkscape:export-filename="/home/vasek/path129.png"
       inkscape:export-xdpi="200"
       inkscape:export-ydpi="200" />
    <path
       style="fill:none;stroke:#000000;stroke-width:0.765;stroke-linecap:butt;stroke-linejoin:miter;stroke-opacity:1;stroke-miterlimit:4;stroke-dasharray:none"
       d="m 93.979496,218.23322 c -1.724919,-0.15516 -1.1372,2.97828 0.183991,2.97828 1.196862,0 0.132527,-2.24682 0.275993,-1.97785 0.482562,0.90472 2.640337,1.08946 3.116352,0.10349 0.70649,-1.46335 -3.1418,-0.94967 -1.851417,-0.97743 0.585251,-0.0126 2.209687,-0.24923 1.920415,-1.19591 -0.390395,-1.27763 -7.218217,-0.20658 -3.645334,1.06942"
       id="path147"
       inkscape:export-filename="/home/vasek/path129.png"
       inkscape:export-xdpi="200"
       inkscape:export-ydpi="200" />
    <path
       style="fill:none;stroke:#000000;stroke-width:0.765;stroke-linecap:butt;stroke-linejoin:miter;stroke-opacity:1;stroke-miterlimit:4;stroke-dasharray:none"
       d="m 93.715016,232.98665 c -0.405321,3.2147 -0.824447,7.78709 -1.586931,10.30325 0.512832,-1.30066 0.352343,-1.3174 1.207448,-1.65587 0.817029,-0.3234 4.898944,-0.84057 4.611286,0.94292 -0.04298,0.26648 -0.379128,0.41526 -0.586468,0.52896 -2.527956,1.38627 -4.39428,-1.51897 -5.232266,0.18399"
       id="path149"
       inkscape:export-filename="/home/vasek/path129.png"
       inkscape:export-xdpi="200"
       inkscape:export-ydpi="200" />
    <path
       style="fill:none;stroke:#000000;stroke-width:0.765;stroke-linecap:butt;stroke-linejoin:miter;stroke-opacity:1;stroke-miterlimit:4;stroke-dasharray:none"
       d="m 102.73059,233.51561 c -0.0307,1.34272 0.0683,2.72303 -0.10349,4.05921 -0.0803,0.62446 -0.19413,1.23868 -0.25299,1.87436 -0.5583,6.02958 -2.23857,0.0628 2.84037,1.23041 0.58139,0.13366 1.49209,0.4942 1.59843,1.19591 0.10343,0.68251 -2.63177,1.08897 -3.01286,0.97743 -0.85913,-0.25144 -2.45029,-1.92134 -2.32289,-0.96593"
       id="path151"
       inkscape:export-filename="/home/vasek/path129.png"
       inkscape:export-xdpi="200"
       inkscape:export-ydpi="200" />
    <path
       style="fill:none;stroke:#000000;stroke-width:0.765;stroke-linecap:butt;stroke-linejoin:miter;stroke-opacity:1;stroke-miterlimit:4;stroke-dasharray:none"
       d="m 101.13217,186.70251 c -1.594098,-0.75777 -2.035733,-2.64722 -3.33485,-3.70273 -3.095146,-2.51475 -6.956518,-0.15174 -8.463603,2.7368 -1.836968,3.5208 -0.345252,6.00819 -3.783325,9.47532 -0.816406,0.8233 -1.631449,1.82073 -2.575885,2.49531 -0.611949,0.43709 -0.990436,0.62 -1.598427,0.91994 -0.180105,0.0889 -0.742498,0.30498 -0.551974,0.24148 3.24516,-1.08155 15.050778,1.72916 17.11121,-0.91994"
       id="path167"
       inkscape:export-filename="/home/vasek/path129.png"
       inkscape:export-xdpi="200"
       inkscape:export-ydpi="200" />
    <path
       style="fill:none;stroke:#000000;stroke-width:0.765;stroke-linecap:butt;stroke-linejoin:miter;stroke-opacity:1;stroke-miterlimit:4;stroke-dasharray:none"
       d="m 101.13217,186.70251 c -3.971036,-6.45658 7.88231,-9.60376 11.34998,-4.93314 0.80117,1.0791 3.77896,11.91909 4.3928,13.91399 0.61081,1.98508 2.26659,2.69763 3.82931,3.82922 0.56372,0.4082 2.18374,0.99881 1.58694,1.3569 -2.82047,1.69233 -10.14849,-1.11279 -13.38539,-1.05792"
       id="path169"
       inkscape:export-filename="/home/vasek/path129.png"
       inkscape:export-xdpi="200"
       inkscape:export-ydpi="200" />
    <path
       style="fill:none;stroke:#000000;stroke-width:0.765;stroke-linecap:butt;stroke-linejoin:miter;stroke-opacity:1;stroke-miterlimit:4;stroke-dasharray:none"
       d="m 100.37201,191.56413 c -0.14185,0.46467 -0.24701,0.388 -0.0755,0.67388 0.63159,1.05264 0.64302,-1.30739 0.0755,-0.67388 -0.13123,0.14648 -0.10843,0.38079 -0.124,0.57685 -0.0606,0.76419 0.51868,-2.07913 -0.0431,0.0593"
       id="path260"
       inkscape:export-filename="/home/vasek/path129.png"
       inkscape:export-xdpi="200"
       inkscape:export-ydpi="200" />
    <path
       style="fill:none;stroke:#000000;stroke-width:0.765;stroke-linecap:butt;stroke-linejoin:miter;stroke-opacity:1;stroke-miterlimit:4;stroke-dasharray:none"
       d="m 105.31041,191.47248 c -0.16004,0.30328 -0.20738,0.46501 -0.10244,0.76014 0.0376,0.10566 0.10749,0.18913 0.21565,0.22643 0.90159,0.31089 -0.28854,-2.52108 -0.16713,-0.27495"
       id="path262"
       inkscape:export-filename="/home/vasek/path129.png"
       inkscape:export-xdpi="200"
       inkscape:export-ydpi="200" />
    <path
       style="fill:none;stroke:#000000;stroke-width:0.765;stroke-linecap:butt;stroke-linejoin:miter;stroke-opacity:1;stroke-miterlimit:4;stroke-dasharray:none"
       d="m 101.44008,196.52757 c 1.26731,0.72634 2.64976,0.75168 4.07743,0.8066"
       id="path274"
       inkscape:export-filename="/home/vasek/path129.png"
       inkscape:export-xdpi="200"
       inkscape:export-ydpi="200" />
    <path
       style="fill:none;stroke:#000000;stroke-width:0.765;stroke-linecap:butt;stroke-linejoin:miter;stroke-opacity:1;stroke-miterlimit:4;stroke-dasharray:none"
       d="m 114.90446,209.62818 c 0.10637,1.05338 1.53439,1.61525 1.82598,0.4166 0.63097,-2.59374 -3.83186,-3.88487 -4.53835,-0.8066 -0.9211,4.0133 4.37373,7.18503 5.91226,10.70739 0.52368,1.19893 0.91965,2.5857 1.17005,3.87345 0.28014,1.44068 -0.44321,4.48395 0.70912,5.56643 2.7638,2.59627 4.86847,-2.53607 2.02985,-3.50118 -3.97271,-1.35067 -0.56171,4.88396 -0.49639,1.68411"
       id="path308"
       inkscape:export-filename="/home/vasek/path129.png"
       inkscape:export-xdpi="200"
       inkscape:export-ydpi="200" />
    <path
       style="fill:none;stroke:#000000;stroke-width:0.765;stroke-linecap:butt;stroke-linejoin:miter;stroke-opacity:1;stroke-miterlimit:4;stroke-dasharray:none"
       d="m 116.09224,210.46137 c 5.8598,0.95983 11.91383,0.70065 17.85203,0.82433"
       id="path312"
       inkscape:export-filename="/home/vasek/path129.png"
       inkscape:export-xdpi="200"
       inkscape:export-ydpi="200" />
    <path
       style="fill:none;stroke:#000000;stroke-width:0.765;stroke-linecap:butt;stroke-linejoin:miter;stroke-opacity:1;stroke-miterlimit:4;stroke-dasharray:none"
       d="m 134.04177,208.30748 c 0.68198,1.4981 0.93925,2.01059 -0.25705,3.11117"
       id="path314"
       inkscape:export-filename="/home/vasek/path129.png"
       inkscape:export-xdpi="200"
       inkscape:export-ydpi="200" />
    <path
       style="fill:none;stroke:#000000;stroke-width:0.765;stroke-linecap:butt;stroke-linejoin:miter;stroke-opacity:1;stroke-miterlimit:4;stroke-dasharray:none"
       d="m 121.22447,225.33472 c 3.20987,-0.35918 6.72047,0.59337 10.00743,0.81546 2.09337,0.14144 7.63567,-0.4921 9.19194,0.15069"
       id="path322"
       inkscape:export-filename="/home/vasek/path129.png"
       inkscape:export-xdpi="200"
       inkscape:export-ydpi="200" />
    <path
       style="fill:none;stroke:#000000;stroke-width:0.765;stroke-linecap:butt;stroke-linejoin:miter;stroke-opacity:1;stroke-miterlimit:4;stroke-dasharray:none"
       d="m 121.76517,230.05023 c 6.36066,0.44351 12.72851,0.27477 19.093,0.27477"
       id="path324"
       inkscape:export-filename="/home/vasek/path129.png"
       inkscape:export-xdpi="200"
       inkscape:export-ydpi="200" />
    <path
       style="fill:none;stroke:#000000;stroke-width:0.765;stroke-linecap:butt;stroke-linejoin:miter;stroke-opacity:1;stroke-miterlimit:4;stroke-dasharray:none"
       d="m 140.36179,226.79724 c 0.89939,1.0078 1.18193,2.45394 0.24819,3.55435"
       id="path326"
       inkscape:export-filename="/home/vasek/path129.png"
       inkscape:export-xdpi="200"
       inkscape:export-ydpi="200" />
    <path
       style="fill:none;stroke:#000000;stroke-width:0.765;stroke-linecap:butt;stroke-linejoin:miter;stroke-opacity:1;stroke-miterlimit:4;stroke-dasharray:none"
       d="m 133.77586,211.88843 c -0.0548,0.9652 -0.0542,1.91532 0.23046,2.84526 0.41871,1.36777 1.6286,2.34043 2.49964,3.39481 0.32408,0.39229 0.61415,0.81234 0.87304,1.25322 1.1423,1.94528 1.67752,4.29613 1.8482,6.45823"
       id="path328"
       sodipodi:nodetypes="csssc"
       inkscape:export-filename="/home/vasek/path129.png"
       inkscape:export-xdpi="200"
       inkscape:export-ydpi="200" />
    <path
       style="fill:none;stroke:#000000;stroke-width:0.765;stroke-linecap:butt;stroke-linejoin:miter;stroke-opacity:1;stroke-miterlimit:4;stroke-dasharray:none"
       d="m 117.21796,214.52982 c 3.94774,-0.83898 8.15486,0.89037 12.29433,0.78002"
       id="path330"
       inkscape:export-filename="/home/vasek/path129.png"
       inkscape:export-xdpi="200"
       inkscape:export-ydpi="200" />
    <path
       style="fill:none;stroke:#000000;stroke-width:0.765;stroke-linecap:butt;stroke-linejoin:miter;stroke-opacity:1;stroke-miterlimit:4;stroke-dasharray:none"
       d="m 120.55967,219.11237 c 0.39244,-0.43716 0.76643,-1.19462 1.37391,-1.40933 1.0857,-0.38374 0.79664,0.99268 1.64871,1.02819 0.75807,0.0316 1.55272,-0.36201 2.32236,-0.39 1.46313,-0.0532 2.41202,0.56225 3.97106,0.13296"
       id="path332"
       inkscape:export-filename="/home/vasek/path129.png"
       inkscape:export-xdpi="200"
       inkscape:export-ydpi="200" />
    <path
       style="fill:none;stroke:#000000;stroke-width:0.765;stroke-linecap:butt;stroke-linejoin:miter;stroke-opacity:1;stroke-miterlimit:4;stroke-dasharray:none"
       d="m 123.62661,222.22355 c 2.9432,-0.7132 7.18051,-0.68049 10.0872,0.32796"
       id="path334"
       inkscape:export-filename="/home/vasek/path129.png"
       inkscape:export-xdpi="200"
       inkscape:export-ydpi="200" />
    <path
       style="fill:none;stroke:#000000;stroke-width:0.765;stroke-linecap:butt;stroke-linejoin:miter;stroke-opacity:1;stroke-miterlimit:4;stroke-dasharray:none"
       d="m 106.48299,211.23235 c 1.78738,-0.27613 3.82982,0.36847 5.53998,-0.0443"
       id="path340"
       inkscape:export-filename="/home/vasek/path129.png"
       inkscape:export-xdpi="200"
       inkscape:export-ydpi="200" />
    <path
       style="fill:none;stroke:#000000;stroke-width:0.765;stroke-linecap:butt;stroke-linejoin:miter;stroke-opacity:1;stroke-miterlimit:4;stroke-dasharray:none"
       d="m 122.77567,206.53473 c -0.57903,0.478 -2.12719,2.40159 -0.75344,2.94276 0.30958,0.12196 0.864,0.0555 1.12572,-0.13295 0.17821,-0.12831 0.2484,-0.82163 0.26592,-0.60274 0.0657,0.82092 0.62953,1.10463 1.40051,0.78001 0.36661,-0.15435 0.20559,-1.53604 0.31024,-1.15228 0.11796,0.43256 0.96679,1.44198 1.5246,1.0016 0.34799,-0.27473 0.28161,-0.84873 0.23933,-1.22319 -0.23679,-2.09716 -2.93068,-2.34392 -4.52949,-2.23367"
       id="path344"
       inkscape:export-filename="/home/vasek/path129.png"
       inkscape:export-xdpi="200"
       inkscape:export-ydpi="200" />
    <path
       style="fill:none;stroke:#000000;stroke-width:0.765;stroke-linecap:butt;stroke-linejoin:miter;stroke-opacity:1;stroke-miterlimit:4;stroke-dasharray:none"
       d="m 114.00928,207.45437 c 1.1823,-0.44171 7.1383,-0.37465 7.8168,0.44584"
       id="path1580"
       inkscape:export-filename="/home/vasek/path129.png"
       inkscape:export-xdpi="200"
       inkscape:export-ydpi="200" />
    <path
       style="fill:none;stroke:#000000;stroke-width:0.765;stroke-linecap:butt;stroke-linejoin:miter;stroke-opacity:1;stroke-miterlimit:4;stroke-dasharray:none"
       d="m 127.22665,207.84987 c 2.22467,-0.0406 4.60113,0.007 6.74531,0.25169"
       id="path1582"
       inkscape:export-filename="/home/vasek/path129.png"
       inkscape:export-xdpi="200"
       inkscape:export-ydpi="200" />
    <path
       style="fill:none;stroke:#000000;stroke-width:0.765;stroke-linecap:butt;stroke-linejoin:miter;stroke-opacity:1;stroke-miterlimit:4;stroke-dasharray:none"
       d="m 103.35916,204.54202 c -2.43288,1.73966 -3.562802,4.69522 -5.450906,6.85301 -0.596815,0.68206 -1.32529,1.25616 -1.840936,2.01347 -0.665536,0.97745 -1.726914,2.72293 -2.639163,3.30066"
       id="path1590"
       inkscape:export-filename="/home/vasek/path129.png"
       inkscape:export-xdpi="200"
       inkscape:export-ydpi="200" />
    <path
       style="fill:none;stroke:#000000;stroke-width:0.765;stroke-linecap:butt;stroke-linejoin:miter;stroke-opacity:1;stroke-miterlimit:4;stroke-dasharray:none"
       d="m 93.01826,218.39185 c -1.608667,3.06774 -4.124172,5.52541 -6.011818,8.39906 -0.977799,1.48855 -1.851993,4.10007 -3.38704,5.04088"
       id="path1592"
       inkscape:export-filename="/home/vasek/path129.png"
       inkscape:export-xdpi="200"
       inkscape:export-ydpi="200" />
  </g>
</svg>
