<?xml version="1.0" encoding="UTF-8" standalone="no"?>
<!-- Created with Inkscape (http://www.inkscape.org/) -->

<svg
   width="61.139915mm"
   height="64.715599mm"
   viewBox="0 0 61.139915 64.715599"
   version="1.1"
   id="svg5"
   inkscape:version="1.2.2 (b0a8486541, 2022-12-01)"
   sodipodi:docname="you.svg"
   xmlns:inkscape="http://www.inkscape.org/namespaces/inkscape"
   xmlns:sodipodi="http://sodipodi.sourceforge.net/DTD/sodipodi-0.dtd"
   xmlns="http://www.w3.org/2000/svg"
   xmlns:svg="http://www.w3.org/2000/svg">
  <sodipodi:namedview
     id="namedview7"
     pagecolor="#ffffff"
     bordercolor="#666666"
     borderopacity="1.0"
     inkscape:pageshadow="2"
     inkscape:pageopacity="0.0"
     inkscape:pagecheckerboard="0"
     inkscape:document-units="mm"
     showgrid="false"
     objecttolerance="1"
     guidetolerance="1"
     inkscape:zoom="6.495"
     inkscape:cx="67.898383"
     inkscape:cy="74.133949"
     inkscape:window-width="1920"
     inkscape:window-height="1200"
     inkscape:window-x="0"
     inkscape:window-y="0"
     inkscape:window-maximized="1"
     inkscape:current-layer="layer1"
     inkscape:showpageshadow="2"
     inkscape:deskcolor="#d1d1d1" />
  <defs
     id="defs2" />
  <g
     inkscape:label="Layer 1"
     inkscape:groupmode="layer"
     id="layer1"
     transform="translate(-80.42839,-179.15432)">
    <path
       style="fill:none;stroke:#000000;stroke-width:0.765;stroke-linecap:butt;stroke-linejoin:round;stroke-miterlimit:4;stroke-dasharray:none;stroke-opacity:1"
       d="m 103.71043,200.28144 c 0.36946,1.11941 0.59388,3.27447 -0.22914,4.09748"
       id="path131"
       inkscape:export-filename="/home/vasek/path129.png"
       inkscape:export-xdpi="200"
       inkscape:export-ydpi="200"
       sodipodi:nodetypes="cc" />
    <path
       style="fill:none;stroke:#000000;stroke-width:0.765;stroke-linecap:butt;stroke-linejoin:round;stroke-miterlimit:4;stroke-dasharray:none;stroke-opacity:1"
       d="m 98.742602,210.61799 c -7.224747,-0.45966 -16.28911,3.07476 -4.763106,7.61523"
       id="path145"
       inkscape:export-filename="/home/vasek/path129.png"
       inkscape:export-xdpi="200"
       inkscape:export-ydpi="200"
       sodipodi:nodetypes="cc" />
    <path
       style="fill:#c87137;stroke:#000000;stroke-width:0.765;stroke-linecap:butt;stroke-linejoin:round;stroke-miterlimit:4;stroke-dasharray:none;stroke-opacity:1"
       d="m 93.70698,233.19137 c -0.405321,3.2147 -0.816411,7.58237 -1.578895,10.09853 0.512832,-1.30066 0.352343,-1.3174 1.207448,-1.65587 0.817029,-0.3234 4.898944,-0.84057 4.611286,0.94292 -0.04298,0.26648 -0.379128,0.41526 -0.586468,0.52896 -2.527956,1.38627 -4.39428,-1.51897 -5.232266,0.18399"
       id="path149"
       inkscape:export-filename="/home/vasek/path129.png"
       inkscape:export-xdpi="200"
       inkscape:export-ydpi="200"
       sodipodi:nodetypes="ccsssc" />
    <path
       style="fill:#c87137;stroke:#000000;stroke-width:0.765;stroke-linecap:butt;stroke-linejoin:round;stroke-miterlimit:4;stroke-dasharray:none;stroke-opacity:1"
       d="m 102.73059,233.51561 c -0.0307,1.34272 0.0683,2.72303 -0.10349,4.05921 -0.0803,0.62446 -0.19413,1.23868 -0.25299,1.87436 -0.5583,6.02958 -2.23857,0.0628 2.84037,1.23041 0.58139,0.13366 1.49209,0.4942 1.59843,1.19591 0.10343,0.68251 -2.63177,1.08897 -3.01286,0.97743 -0.85913,-0.25144 -2.12655,-1.67058 -1.99915,-0.71517"
       id="path151"
       inkscape:export-filename="/home/vasek/path129.png"
       inkscape:export-xdpi="200"
       inkscape:export-ydpi="200"
       sodipodi:nodetypes="csssssc" />
    <path
       id="path167"
       style="fill:#784421;stroke:#000000;stroke-width:0.765;stroke-linecap:butt;stroke-linejoin:round;stroke-miterlimit:4;stroke-dasharray:none;stroke-opacity:1"
       d="M 94.920012 181.93606 C 92.617233 181.93454 90.393458 183.70534 89.33379 185.73635 C 87.496823 189.25714 88.988628 191.74461 85.550558 195.21174 C 84.734153 196.03504 83.918923 197.03261 82.974488 197.70719 C 82.362539 198.14428 81.984126 198.32709 81.376136 198.62703 C 81.196031 198.71593 80.633708 198.93238 80.824231 198.86888 C 84.069388 197.78733 95.874902 200.59762 97.935332 197.94852 L 98.005612 197.70203 C 95.589109 195.8332 94.135356 193.12139 95.209917 190.25597 C 96.068301 187.96701 98.946564 187.10615 101.13204 186.7027 C 99.537939 185.94493 99.096471 184.05507 97.797356 182.99956 C 96.878485 182.253 95.892296 181.9367 94.920012 181.93606 z " />
    <path
       id="path169"
       style="fill:#784421;stroke:#000000;stroke-width:0.765;stroke-linecap:butt;stroke-linejoin:round;stroke-miterlimit:4;stroke-dasharray:none;stroke-opacity:1"
       d="M 107.21539 179.53776 C 102.93946 179.52057 98.463999 182.36469 101.13204 186.7027 C 104.04761 186.16445 109.88618 186.99734 112.01044 189.3475 C 114.90864 192.55388 111.61433 197.45466 108.81374 199.23682 C 108.7182 199.29761 108.62085 199.35458 108.52177 199.40941 L 108.53727 199.43629 C 111.77417 199.38142 119.47048 202.5616 122.29095 200.86927 C 122.88775 200.51118 121.2682 199.92097 120.70448 199.51277 C 119.14177 198.38118 117.48555 197.66862 116.87474 195.68354 C 116.2609 193.68865 113.28342 182.84825 112.48225 181.76915 C 111.34442 180.2366 109.30363 179.54616 107.21539 179.53776 z " />
    <path
       style="fill:#deaa87;stroke:#000000;stroke-width:0.765;stroke-linecap:butt;stroke-linejoin:round;stroke-miterlimit:4;stroke-dasharray:none;stroke-opacity:1;fill-opacity:1"
       d="m 101.13217,186.70251 c -2.185474,0.40345 -5.063847,1.26428 -5.922232,3.55324 -2.461979,6.5651 8.346262,12.32653 13.603872,8.98085 2.8006,-1.78216 6.09506,-6.68289 3.19686,-9.88928 -2.12426,-2.35016 -7.96292,-3.18306 -10.8785,-2.64481 z"
       id="path129"
       inkscape:export-filename="/home/vasek/path129.png"
       inkscape:export-xdpi="200"
       inkscape:export-ydpi="200" />
    <path
       style="fill:#000000;stroke:#000000;stroke-width:0.765;stroke-linecap:butt;stroke-linejoin:round;stroke-miterlimit:4;stroke-dasharray:none;stroke-opacity:1;fill-opacity:1"
       d="m 100.37201,191.56413 c -0.14185,0.46467 -0.24701,0.388 -0.0755,0.67388 0.63159,1.05264 0.64302,-1.30739 0.0755,-0.67388 -0.13123,0.14648 -0.10843,0.38079 -0.124,0.57685 -0.0606,0.76419 0.51868,-2.07913 -0.0431,0.0593"
       id="path260"
       inkscape:export-filename="/home/vasek/path129.png"
       inkscape:export-xdpi="200"
       inkscape:export-ydpi="200" />
    <path
       style="fill:#000000;stroke:#000000;stroke-width:0.765;stroke-linecap:butt;stroke-linejoin:round;stroke-miterlimit:4;stroke-dasharray:none;stroke-opacity:1;fill-opacity:1"
       d="m 105.31041,191.47248 c -0.16004,0.30328 -0.20738,0.46501 -0.10244,0.76014 0.0376,0.10566 0.10749,0.18913 0.21565,0.22643 0.90159,0.31089 -0.28854,-2.52108 -0.16713,-0.27495"
       id="path262"
       inkscape:export-filename="/home/vasek/path129.png"
       inkscape:export-xdpi="200"
       inkscape:export-ydpi="200" />
    <path
       style="fill:none;stroke:#000000;stroke-width:0.765;stroke-linecap:round;stroke-linejoin:round;stroke-miterlimit:4;stroke-dasharray:none;stroke-opacity:1"
       d="m 101.44008,196.52757 c 1.26731,0.72634 2.64976,0.75168 4.07743,0.8066"
       id="path274"
       inkscape:export-filename="/home/vasek/path129.png"
       inkscape:export-xdpi="200"
       inkscape:export-ydpi="200" />
    <path
       style="fill:none;stroke:#000000;stroke-width:0.765;stroke-linecap:butt;stroke-linejoin:round;stroke-miterlimit:4;stroke-dasharray:none;stroke-opacity:1"
       d="m 106.76858,211.16028 c 1.78738,-0.27613 3.54423,0.44054 5.25439,0.0278"
       id="path340"
       inkscape:export-filename="/home/vasek/path129.png"
       inkscape:export-xdpi="200"
       inkscape:export-ydpi="200"
       sodipodi:nodetypes="cc" />
    <path
       id="path445"
       style="fill:#f4e3d7;stroke:none;stroke-width:1;stroke-linecap:butt;stroke-linejoin:round;stroke-miterlimit:4;stroke-dasharray:none;stroke-opacity:1"
       d="m 139.23626,225.94909 c -0.17068,-2.1621 -0.71496,-4.62209 -1.85726,-6.56737 -0.25889,-0.44088 -0.54896,-0.86093 -0.87304,-1.25322 -0.87104,-1.05438 -2.08093,-2.02704 -2.49964,-3.39481 -0.28461,-0.92994 -0.25731,-2.17442 -0.20251,-3.13962 l 0.0607,-0.2419 c 1.11652,-1.0341 0.85925,-1.54659 0.14236,-3.14765 -2.17908,-0.34765 -4.79682,-0.37245 -7.02149,-0.33185 l -5.44754,-0.11491 c -0.6785,-0.82049 -5.50856,-0.75182 -7.549,-0.32073 -0.83047,0.17546 -1.68634,0.94516 -1.81719,1.78381 -0.67328,4.31536 4.39418,7.20237 5.93271,10.72473 0.52368,1.19893 0.91965,2.5857 1.17005,3.87345 0.28014,1.44068 -0.52488,4.12241 0.63214,5.60402 0.39014,0.49959 1.15783,0.55233 1.78165,0.66478 1.38393,0.24947 12.80549,0.23717 19.04589,0.25047 0.80964,-1.08711 0.44663,-2.86601 -0.42528,-3.92743 z"
       sodipodi:nodetypes="cssccccccssssasccc" />
    <path
       style="fill:none;stroke:#000000;stroke-width:0.765;stroke-linecap:butt;stroke-linejoin:round;stroke-miterlimit:4;stroke-dasharray:none;stroke-opacity:1"
       d="m 120.85014,225.69626 c 3.20987,-0.35918 7.0948,0.23183 10.38176,0.45392 2.09337,0.14144 7.54812,-0.43572 9.0769,0.26068 0.87191,1.06142 1.23492,2.84032 0.42528,3.92743 -6.2404,-0.0133 -12.60825,0.15545 -18.96891,-0.28806"
       id="path322"
       inkscape:export-filename="/home/vasek/path129.png"
       inkscape:export-xdpi="200"
       inkscape:export-ydpi="200"
       sodipodi:nodetypes="csccc" />
    <path
       style="fill:none;stroke:#000000;stroke-width:0.765;stroke-linecap:butt;stroke-linejoin:round;stroke-miterlimit:4;stroke-dasharray:none;stroke-opacity:1"
       d="m 117.21796,214.52982 c 3.94774,-0.83898 8.15486,0.89037 12.29433,0.78002"
       id="path330"
       inkscape:export-filename="/home/vasek/path129.png"
       inkscape:export-xdpi="200"
       inkscape:export-ydpi="200" />
    <path
       style="fill:none;stroke:#000000;stroke-width:0.765;stroke-linecap:butt;stroke-linejoin:round;stroke-miterlimit:4;stroke-dasharray:none;stroke-opacity:1"
       d="m 120.55967,219.11237 c 0.39244,-0.43716 0.76643,-1.19462 1.37391,-1.40933 1.0857,-0.38374 0.79664,0.99268 1.64871,1.02819 0.75807,0.0316 1.55272,-0.36201 2.32236,-0.39 1.46313,-0.0532 2.41202,0.56225 3.97106,0.13296"
       id="path332"
       inkscape:export-filename="/home/vasek/path129.png"
       inkscape:export-xdpi="200"
       inkscape:export-ydpi="200" />
    <path
       style="fill:none;stroke:#000000;stroke-width:0.765;stroke-linecap:butt;stroke-linejoin:round;stroke-miterlimit:4;stroke-dasharray:none;stroke-opacity:1"
       d="m 123.62661,222.22355 c 2.9432,-0.7132 7.18051,-0.68049 10.0872,0.32796"
       id="path334"
       inkscape:export-filename="/home/vasek/path129.png"
       inkscape:export-xdpi="200"
       inkscape:export-ydpi="200" />
    <path
       style="fill:none;stroke:#000000;stroke-width:0.765;stroke-linecap:butt;stroke-linejoin:round;stroke-miterlimit:4;stroke-dasharray:none;stroke-opacity:1"
       d="m 114.00928,207.45437 c 1.1823,-0.44171 6.85005,-0.5171 7.52855,0.30339 l 5.44754,0.11491 c 2.22467,-0.0406 4.84241,-0.0158 7.02149,0.33185 0.71689,1.60106 0.97416,2.11355 -0.14236,3.14765 -5.85843,-0.19015 -11.99113,0.32202 -17.85093,-0.63781"
       id="path1580"
       inkscape:export-filename="/home/vasek/path129.png"
       inkscape:export-xdpi="200"
       inkscape:export-ydpi="200"
       sodipodi:nodetypes="cccccc" />
    <path
       style="fill:#008080;stroke:#000000;stroke-width:0.765;stroke-linecap:butt;stroke-linejoin:round;stroke-miterlimit:4;stroke-dasharray:none;stroke-opacity:1"
       d="m 93.043704,218.0714 c -1.608667,3.06774 -4.149618,5.84586 -6.037262,8.71951 -0.977799,1.48855 -2.697892,4.40293 -2.797291,5.46998 -0.07941,0.45206 0.07313,1.03313 0.39828,1.30072 0.725093,0.59674 4.002627,-0.38757 5.048268,-0.25298 3.054821,0.39321 6.026232,0.006 9.107583,0.17248 5.073518,0.27423 10.000138,0.9502 15.098798,0.83945 1.82759,-0.0397 4.00169,0.26279 3.76032,-1.5869 -0.7183,-5.50464 -5.34855,-10.27436 -7.94613,-15.15589 -1.80946,-3.40046 -2.8491,-7.09579 -4.38129,-10.62523 -0.47038,-1.08354 -0.66283,-2.15806 -1.86487,-2.57366 -2.50383,1.9028 -3.633752,4.85836 -5.521856,7.01615 -0.596815,0.68206 -1.32529,1.25616 -1.840936,2.01347 -0.665536,0.97745 -1.716688,3.01479 -2.628937,3.59252"
       id="path1592"
       inkscape:export-filename="/home/vasek/path129.png"
       inkscape:export-xdpi="200"
       inkscape:export-ydpi="200"
       sodipodi:nodetypes="cscsscsssscssc" />
    <path
       style="fill:#deaa87;fill-opacity:1;stroke:#000000;stroke-width:0.765;stroke-linecap:butt;stroke-linejoin:round;stroke-miterlimit:4;stroke-dasharray:none;stroke-opacity:1"
       d="m 94.163487,221.2115 c 1.196862,0 0.132527,-2.24682 0.275993,-1.97785 0.482562,0.90472 2.640337,1.08946 3.116352,0.10349 0.70649,-1.46335 -3.1418,-0.94967 -1.851417,-0.97743 0.585251,-0.0126 2.209685,-0.24923 1.920415,-1.19591 -0.0976,-0.31941 -0.597537,-0.49202 -1.236718,-0.55134 -1.062187,0.007 -2.720157,-0.20328 -3.401242,0.73568 -0.664285,0.9158 -0.237005,2.55965 0.347921,3.37618 0.213939,0.29134 0.498395,0.48718 0.828693,0.48718 z"
       id="path147"
       inkscape:export-filename="/home/vasek/path129.png"
       inkscape:export-xdpi="200"
       inkscape:export-ydpi="200"
       sodipodi:nodetypes="ssscscacss" />
    <path
       style="fill:#deaa87;stroke:#000000;stroke-width:0.765;stroke-linecap:butt;stroke-linejoin:round;stroke-miterlimit:4;stroke-dasharray:none;stroke-opacity:1;fill-opacity:1"
       d="m 122.02223,209.47749 c 0.30958,0.12196 0.864,0.0555 1.12572,-0.13295 0.17821,-0.12831 0.2484,-0.82163 0.26592,-0.60274 0.0657,0.82092 0.62953,1.10463 1.40051,0.78001 0.36661,-0.15435 0.20559,-1.53604 0.31024,-1.15228 0.11796,0.43256 0.96679,1.44198 1.5246,1.0016 0.34799,-0.27473 0.28161,-0.84873 0.23933,-1.22319 -0.23679,-2.09716 -3.07085,-2.08469 -4.5312,-1.67054 -0.65574,0.18596 -1.70887,2.45892 -0.33512,3.00009 z"
       id="path344"
       inkscape:export-filename="/home/vasek/path129.png"
       inkscape:export-xdpi="200"
       inkscape:export-ydpi="200"
       sodipodi:nodetypes="sssssssss" />
    <path
       style="fill:none;stroke:#000000;stroke-width:0.765;stroke-linecap:butt;stroke-linejoin:round;stroke-miterlimit:4;stroke-dasharray:none;stroke-opacity:1"
       d="m 114.90446,209.62818 c 0.10637,1.05338 1.53439,1.61525 1.82598,0.4166 0.63097,-2.59374 -3.83186,-3.88487 -4.53835,-0.8066 -0.9211,4.0133 4.37373,7.18503 5.91226,10.70739 0.52368,1.19893 0.91965,2.5857 1.17005,3.87345 0.28014,1.44068 -0.44321,4.48395 0.70912,5.56643 2.7638,2.59627 4.86847,-2.53607 2.02985,-3.50118 -3.97271,-1.35067 -0.56169,4.88396 -0.49639,1.68411"
       id="path1739" />
    <path
       style="fill:none;stroke:#000000;stroke-width:0.765;stroke-linecap:butt;stroke-linejoin:round;stroke-miterlimit:4;stroke-dasharray:none;stroke-opacity:1"
       d="m 139.23626,225.94909 c -0.17068,-2.1621 -0.71496,-4.62209 -1.85726,-6.56737 -0.25889,-0.44088 -0.54896,-0.86093 -0.87304,-1.25322 -0.87104,-1.05438 -2.08093,-2.02704 -2.49964,-3.39481 -0.28461,-0.92994 -0.25731,-2.17442 -0.20251,-3.13962"
       id="path308" />
    <path
       style="fill:#ffe6d5;stroke:none;stroke-width:0;stroke-miterlimit:4;stroke-dasharray:none"
       d=""
       id="path2058"
       transform="matrix(0.26458333,0,0,0.26458333,80.42839,179.15432)" />
  </g>
</svg>
