<?xml version="1.0" encoding="UTF-8" standalone="no"?>
<!-- Created with Inkscape (http://www.inkscape.org/) -->

<svg
   width="61.139915mm"
   height="64.715599mm"
   viewBox="0 0 61.139915 64.715599"
   version="1.1"
   id="svg5"
   inkscape:version="1.1.2 (0a00cf5339, 2022-02-04)"
   sodipodi:docname="you.svg"
   xmlns:inkscape="http://www.inkscape.org/namespaces/inkscape"
   xmlns:sodipodi="http://sodipodi.sourceforge.net/DTD/sodipodi-0.dtd"
   xmlns="http://www.w3.org/2000/svg"
   xmlns:svg="http://www.w3.org/2000/svg">
  <sodipodi:namedview
     id="namedview7"
     pagecolor="#ffffff"
     bordercolor="#666666"
     borderopacity="1.0"
     inkscape:pageshadow="2"
     inkscape:pageopacity="0.0"
     inkscape:pagecheckerboard="0"
     inkscape:document-units="mm"
     showgrid="false"
     objecttolerance="1"
     guidetolerance="1"
     inkscape:zoom="1.6235791"
     inkscape:cx="18.785657"
     inkscape:cy="49.581816"
     inkscape:window-width="1846"
     inkscape:window-height="1016"
     inkscape:window-x="74"
     inkscape:window-y="27"
     inkscape:window-maximized="1"
     inkscape:current-layer="layer1"
     inkscape:showpageshadow="2"
     inkscape:deskcolor="#d1d1d1" />
  <defs
     id="defs2" />
  <g
     inkscape:label="Layer 1"
     inkscape:groupmode="layer"
     id="layer1"
     transform="translate(-80.42839,-179.15432)">
    <path
       style="fill:none;stroke:#000000;stroke-width:0.765;stroke-linecap:butt;stroke-linejoin:round;stroke-miterlimit:4;stroke-dasharray:none;stroke-opacity:1"
       d="m 103.71043,200.28144 c 0.36946,1.11941 0.59388,3.27447 -0.22914,4.09748"
       id="path131"
       inkscape:export-filename="/home/vasek/path129.png"
       inkscape:export-xdpi="200"
       inkscape:export-ydpi="200"
       sodipodi:nodetypes="cc" />
    <path
       style="fill:none;stroke:#000000;stroke-width:0.765;stroke-linecap:butt;stroke-linejoin:round;stroke-miterlimit:4;stroke-dasharray:none;stroke-opacity:1"
       d="m 98.742602,210.61799 c -7.224747,-0.45966 -16.28911,3.07476 -4.763106,7.61523"
       id="path145"
       inkscape:export-filename="/home/vasek/path129.png"
       inkscape:export-xdpi="200"
       inkscape:export-ydpi="200"
       sodipodi:nodetypes="cc" />
    <path
       style="fill:#c87137;stroke:#000000;stroke-width:0.765;stroke-linecap:butt;stroke-linejoin:round;stroke-miterlimit:4;stroke-dasharray:none;stroke-opacity:1"
       d="m 93.70698,233.19137 c -0.405321,3.2147 -0.816411,7.58237 -1.578895,10.09853 0.512832,-1.30066 0.352343,-1.3174 1.207448,-1.65587 0.817029,-0.3234 4.898944,-0.84057 4.611286,0.94292 -0.04298,0.26648 -0.379128,0.41526 -0.586468,0.52896 -2.527956,1.38627 -4.39428,-1.51897 -5.232266,0.18399"
       id="path149"
       inkscape:export-filename="/home/vasek/path129.png"
       inkscape:export-xdpi="200"
       inkscape:export-ydpi="200"
       sodipodi:nodetypes="ccsssc" />
    <path
       style="fill:#c87137;stroke:#000000;stroke-width:0.765;stroke-linecap:butt;stroke-linejoin:round;stroke-miterlimit:4;stroke-dasharray:none;stroke-opacity:1"
       d="m 102.73059,233.51561 c -0.0307,1.34272 0.0683,2.72303 -0.10349,4.05921 -0.0803,0.62446 -0.19413,1.23868 -0.25299,1.87436 -0.5583,6.02958 -2.23857,0.0628 2.84037,1.23041 0.58139,0.13366 1.49209,0.4942 1.59843,1.19591 0.10343,0.68251 -2.63177,1.08897 -3.01286,0.97743 -0.85913,-0.25144 -2.12655,-1.67058 -1.99915,-0.71517"
       id="path151"
       inkscape:export-filename="/home/vasek/path129.png"
       inkscape:export-xdpi="200"
       inkscape:export-ydpi="200"
       sodipodi:nodetypes="csssssc" />
    <path
       style="fill:#784421;stroke:#000000;stroke-width:0.765;stroke-linecap:butt;stroke-linejoin:round;stroke-miterlimit:4;stroke-dasharray:none;stroke-opacity:1"
       d="m 101.13217,186.70251 c -1.594098,-0.75777 -2.035733,-2.64722 -3.33485,-3.70273 -3.095146,-2.51475 -6.956518,-0.15174 -8.463603,2.7368 -1.836968,3.5208 -0.345252,6.00819 -3.783325,9.47532 -0.816406,0.8233 -1.631449,1.82073 -2.575885,2.49531 -0.611949,0.43709 -0.990436,0.62 -1.598427,0.91994 -0.180105,0.0889 -0.742498,0.30498 -0.551974,0.24148 3.24516,-1.08155 15.050778,1.72916 17.11121,-0.91994"
       id="path167"
       inkscape:export-filename="/home/vasek/path129.png"
       inkscape:export-xdpi="200"
       inkscape:export-ydpi="200" />
    <path
       style="fill:#784421;stroke:#000000;stroke-width:0.765;stroke-linecap:butt;stroke-linejoin:round;stroke-miterlimit:4;stroke-dasharray:none;stroke-opacity:1"
       d="m 101.13217,186.70251 c -3.971036,-6.45658 7.88231,-9.60376 11.34998,-4.93314 0.80117,1.0791 3.77896,11.91909 4.3928,13.91399 0.61081,1.98508 2.26659,2.69763 3.82931,3.82922 0.56372,0.4082 2.18374,0.99881 1.58694,1.3569 -2.82047,1.69233 -10.51717,-1.48791 -13.75407,-1.43304"
       id="path169"
       inkscape:export-filename="/home/vasek/path129.png"
       inkscape:export-xdpi="200"
       inkscape:export-ydpi="200"
       sodipodi:nodetypes="cssssc" />
    <path
       style="fill:#ff7f2a;stroke:#000000;stroke-width:0.765;stroke-linecap:butt;stroke-linejoin:round;stroke-miterlimit:4;stroke-dasharray:none;stroke-opacity:1"
       d="m 101.13217,186.70251 c -2.185474,0.40345 -5.063847,1.26428 -5.922232,3.55324 -2.461979,6.5651 8.346262,12.32653 13.603872,8.98085 2.8006,-1.78216 6.09506,-6.68289 3.19686,-9.88928 -2.12426,-2.35016 -7.96292,-3.18306 -10.8785,-2.64481 z"
       id="path129"
       inkscape:export-filename="/home/vasek/path129.png"
       inkscape:export-xdpi="200"
       inkscape:export-ydpi="200" />
    <path
       style="fill:none;stroke:#000000;stroke-width:0.765;stroke-linecap:butt;stroke-linejoin:round;stroke-miterlimit:4;stroke-dasharray:none;stroke-opacity:1"
       d="m 100.37201,191.56413 c -0.14185,0.46467 -0.24701,0.388 -0.0755,0.67388 0.63159,1.05264 0.64302,-1.30739 0.0755,-0.67388 -0.13123,0.14648 -0.10843,0.38079 -0.124,0.57685 -0.0606,0.76419 0.51868,-2.07913 -0.0431,0.0593"
       id="path260"
       inkscape:export-filename="/home/vasek/path129.png"
       inkscape:export-xdpi="200"
       inkscape:export-ydpi="200" />
    <path
       style="fill:none;stroke:#000000;stroke-width:0.765;stroke-linecap:butt;stroke-linejoin:round;stroke-miterlimit:4;stroke-dasharray:none;stroke-opacity:1"
       d="m 105.31041,191.47248 c -0.16004,0.30328 -0.20738,0.46501 -0.10244,0.76014 0.0376,0.10566 0.10749,0.18913 0.21565,0.22643 0.90159,0.31089 -0.28854,-2.52108 -0.16713,-0.27495"
       id="path262"
       inkscape:export-filename="/home/vasek/path129.png"
       inkscape:export-xdpi="200"
       inkscape:export-ydpi="200" />
    <path
       style="fill:none;stroke:#000000;stroke-width:0.765;stroke-linecap:round;stroke-linejoin:round;stroke-miterlimit:4;stroke-dasharray:none;stroke-opacity:1"
       d="m 101.44008,196.52757 c 1.26731,0.72634 2.64976,0.75168 4.07743,0.8066"
       id="path274"
       inkscape:export-filename="/home/vasek/path129.png"
       inkscape:export-xdpi="200"
       inkscape:export-ydpi="200" />
    <path
       style="fill:none;stroke:#000000;stroke-width:0.765;stroke-linecap:butt;stroke-linejoin:round;stroke-miterlimit:4;stroke-dasharray:none;stroke-opacity:1"
       d="m 106.76858,211.16028 c 1.78738,-0.27613 3.54423,0.44054 5.25439,0.0278"
       id="path340"
       inkscape:export-filename="/home/vasek/path129.png"
       inkscape:export-xdpi="200"
       inkscape:export-ydpi="200"
       sodipodi:nodetypes="cc" />
    <path
       id="path445"
       style="fill:#f4e3d7;stroke:none;stroke-width:0.765;stroke-linecap:butt;stroke-linejoin:round;stroke-miterlimit:4;stroke-dasharray:none;stroke-opacity:1"
       d="m 139.23626,225.94909 c -0.17068,-2.1621 -0.71496,-4.62209 -1.85726,-6.56737 -0.25889,-0.44088 -0.54896,-0.86093 -0.87304,-1.25322 -0.87104,-1.05438 -2.08093,-2.02704 -2.49964,-3.39481 -0.28461,-0.92994 -0.25731,-2.17442 -0.20251,-3.13962 l 0.0607,-0.2419 c 1.11652,-1.0341 0.85925,-1.54659 0.14236,-3.14765 -2.17908,-0.34765 -4.79682,-0.37245 -7.02149,-0.33185 l -5.44754,-0.11491 c -0.6785,-0.82049 -6.34625,-0.7451 -7.52855,-0.30339 l -1.81719,1.78381 c -0.9211,4.0133 4.37373,7.18503 5.91226,10.70739 0.52368,1.19893 0.91965,2.5857 1.17005,3.87345 0.28014,1.44068 -0.44321,4.48395 0.70912,5.56643 l 1.78165,0.66478 c 6.36066,0.44351 12.72851,0.27476 18.96891,0.28806 0.80964,-1.08711 0.44663,-2.86601 -0.42528,-3.92743 z"
       sodipodi:nodetypes="cssccccccccssccccc" />
    <path
       style="fill:none;stroke:#000000;stroke-width:0.765;stroke-linecap:butt;stroke-linejoin:round;stroke-miterlimit:4;stroke-dasharray:none;stroke-opacity:1"
       d="m 120.85014,225.69626 c 3.20987,-0.35918 7.0948,0.23183 10.38176,0.45392 2.09337,0.14144 7.54812,-0.43572 9.0769,0.26068 0.87191,1.06142 1.23492,2.84032 0.42528,3.92743 -6.2404,-0.0133 -12.60825,0.15545 -18.96891,-0.28806"
       id="path322"
       inkscape:export-filename="/home/vasek/path129.png"
       inkscape:export-xdpi="200"
       inkscape:export-ydpi="200"
       sodipodi:nodetypes="csccc" />
    <path
       style="fill:none;stroke:#000000;stroke-width:0.765;stroke-linecap:butt;stroke-linejoin:round;stroke-miterlimit:4;stroke-dasharray:none;stroke-opacity:1"
       d="m 117.21796,214.52982 c 3.94774,-0.83898 8.15486,0.89037 12.29433,0.78002"
       id="path330"
       inkscape:export-filename="/home/vasek/path129.png"
       inkscape:export-xdpi="200"
       inkscape:export-ydpi="200" />
    <path
       style="fill:none;stroke:#000000;stroke-width:0.765;stroke-linecap:butt;stroke-linejoin:round;stroke-miterlimit:4;stroke-dasharray:none;stroke-opacity:1"
       d="m 120.55967,219.11237 c 0.39244,-0.43716 0.76643,-1.19462 1.37391,-1.40933 1.0857,-0.38374 0.79664,0.99268 1.64871,1.02819 0.75807,0.0316 1.55272,-0.36201 2.32236,-0.39 1.46313,-0.0532 2.41202,0.56225 3.97106,0.13296"
       id="path332"
       inkscape:export-filename="/home/vasek/path129.png"
       inkscape:export-xdpi="200"
       inkscape:export-ydpi="200" />
    <path
       style="fill:none;stroke:#000000;stroke-width:0.765;stroke-linecap:butt;stroke-linejoin:round;stroke-miterlimit:4;stroke-dasharray:none;stroke-opacity:1"
       d="m 123.62661,222.22355 c 2.9432,-0.7132 7.18051,-0.68049 10.0872,0.32796"
       id="path334"
       inkscape:export-filename="/home/vasek/path129.png"
       inkscape:export-xdpi="200"
       inkscape:export-ydpi="200" />
    <path
       style="fill:none;stroke:#000000;stroke-width:0.765;stroke-linecap:butt;stroke-linejoin:round;stroke-miterlimit:4;stroke-dasharray:none;stroke-opacity:1"
       d="m 114.00928,207.45437 c 1.1823,-0.44171 6.85005,-0.5171 7.52855,0.30339 l 5.44754,0.11491 c 2.22467,-0.0406 4.84241,-0.0158 7.02149,0.33185 0.71689,1.60106 0.97416,2.11355 -0.14236,3.14765 -5.85843,-0.19015 -11.99113,0.32202 -17.85093,-0.63781"
       id="path1580"
       inkscape:export-filename="/home/vasek/path129.png"
       inkscape:export-xdpi="200"
       inkscape:export-ydpi="200"
       sodipodi:nodetypes="cccccc" />
    <path
       style="fill:#008080;stroke:#000000;stroke-width:0.765;stroke-linecap:butt;stroke-linejoin:round;stroke-miterlimit:4;stroke-dasharray:none;stroke-opacity:1"
       d="m 93.043704,218.0714 c -1.608667,3.06774 -4.149618,5.84586 -6.037262,8.71951 -0.977799,1.48855 -2.697892,4.40293 -2.797291,5.46998 -0.07941,0.45206 0.07313,1.03313 0.39828,1.30072 0.725093,0.59674 4.002627,-0.38757 5.048268,-0.25298 3.054821,0.39321 6.026232,0.006 9.107583,0.17248 5.073518,0.27423 10.000138,0.9502 15.098798,0.83945 1.82759,-0.0397 4.00169,0.26279 3.76032,-1.5869 -0.7183,-5.50464 -5.34855,-10.27436 -7.94613,-15.15589 -1.80946,-3.40046 -2.8491,-7.09579 -4.38129,-10.62523 -0.47038,-1.08354 -0.66283,-2.15806 -1.86487,-2.57366 -2.50383,1.9028 -3.633752,4.85836 -5.521856,7.01615 -0.596815,0.68206 -1.32529,1.25616 -1.840936,2.01347 -0.665536,0.97745 -1.716688,3.01479 -2.628937,3.59252"
       id="path1592"
       inkscape:export-filename="/home/vasek/path129.png"
       inkscape:export-xdpi="200"
       inkscape:export-ydpi="200"
       sodipodi:nodetypes="cscsscsssscssc" />
    <path
       style="fill:#ffccaa;stroke:#000000;stroke-width:0.765;stroke-linecap:butt;stroke-linejoin:round;stroke-miterlimit:4;stroke-dasharray:none;stroke-opacity:1"
       d="m 93.979496,218.23322 c -1.724919,-0.15516 -1.1372,2.97828 0.183991,2.97828 1.196862,0 0.132527,-2.24682 0.275993,-1.97785 0.482562,0.90472 2.640337,1.08946 3.116352,0.10349 0.70649,-1.46335 -3.1418,-0.94967 -1.851417,-0.97743 0.585251,-0.0126 2.209687,-0.24923 1.920415,-1.19591 -0.390395,-1.27763 -7.218217,-0.20658 -3.645334,1.06942"
       id="path147"
       inkscape:export-filename="/home/vasek/path129.png"
       inkscape:export-xdpi="200"
       inkscape:export-ydpi="200" />
    <path
       style="fill:#ffb380;stroke:#000000;stroke-width:0.765;stroke-linecap:butt;stroke-linejoin:round;stroke-miterlimit:4;stroke-dasharray:none;stroke-opacity:1"
       d="m 122.02223,209.47749 c 0.30958,0.12196 0.864,0.0555 1.12572,-0.13295 0.17821,-0.12831 0.2484,-0.82163 0.26592,-0.60274 0.0657,0.82092 0.62953,1.10463 1.40051,0.78001 0.36661,-0.15435 0.20559,-1.53604 0.31024,-1.15228 0.11796,0.43256 0.96679,1.44198 1.5246,1.0016 0.34799,-0.27473 0.28161,-0.84873 0.23933,-1.22319 -0.23679,-2.09716 -3.07085,-2.08469 -4.5312,-1.67054 -0.65574,0.18596 -1.70887,2.45892 -0.33512,3.00009 z"
       id="path344"
       inkscape:export-filename="/home/vasek/path129.png"
       inkscape:export-xdpi="200"
       inkscape:export-ydpi="200"
       sodipodi:nodetypes="sssssssss" />
    <path
       id="path308"
       style="fill:none;stroke:#000000;stroke-width:0.765;stroke-linecap:butt;stroke-linejoin:round;stroke-miterlimit:4;stroke-dasharray:none;stroke-opacity:1"
       d="m 139.23626,225.94909 c -0.17068,-2.1621 -0.71496,-4.62209 -1.85726,-6.56737 -0.25889,-0.44088 -0.54896,-0.86093 -0.87304,-1.25322 -0.87104,-1.05438 -2.08093,-2.02704 -2.49964,-3.39481 -0.28461,-0.92994 -0.25731,-2.17442 -0.20251,-3.13962 m -18.89935,-1.96589 c 0.10637,1.05338 1.53439,1.61525 1.82598,0.4166 0.63097,-2.59374 -3.83186,-3.88487 -4.53835,-0.8066 -0.9211,4.0133 4.37373,7.18503 5.91226,10.70739 0.52368,1.19893 0.91965,2.5857 1.17005,3.87345 0.28014,1.44068 -0.44321,4.48395 0.70912,5.56643 2.7638,2.59627 4.86847,-2.53607 2.02985,-3.50118 -3.97271,-1.35067 -0.56169,4.88396 -0.49639,1.68411"
       sodipodi:nodetypes="csscccscssscc" />
    <path
       style="fill:#deaa87;stroke:none;stroke-width:0;stroke-miterlimit:4;stroke-dasharray:none"
       d="M 85.529531,77.033653 C 70.220957,73.545518 57.39496,62.090255 56.482834,51.091221 55.629152,40.796938 61.760923,34.259672 75.306648,31.022583 c 10.265953,-2.453305 25.250202,-0.84908 35.094142,3.757204 5.55506,2.599386 7.92005,4.632957 9.75881,8.391254 2.34925,4.801692 1.99319,9.878345 -1.15815,16.51252 -3.17096,6.675487 -10.71108,14.315066 -16.14228,16.355196 -4.651224,1.747148 -12.141059,2.17714 -17.329639,0.994896 z m 10.554485,-8.358219 c 0,-1.491196 -0.170507,-1.554009 -5.400998,-1.989649 -3.223024,-0.268441 -6.622965,-0.975517 -8.431264,-1.753426 -3.252818,-1.399325 -4.337472,-1.215665 -4.337472,0.734443 0,2.332727 8.431145,4.873926 15.39808,4.641075 2.521113,-0.08426 2.771654,-0.231824 2.771654,-1.632443 z M 78.156347,51.071249 C 79.30537,48.076942 77.891478,44.65443 75.50546,44.65443 c -1.039092,0 -2.518563,2.288284 -2.518563,3.895436 0,2.644623 4.314609,4.749061 5.16945,2.521383 z m 18.870887,-0.293712 c 1.523857,-2.847352 -0.950749,-7.068928 -3.560892,-6.074735 -1.328199,0.505906 -1.728609,1.73568 -1.472177,4.521485 0.262098,2.847364 3.762367,3.927579 5.033069,1.55325 z"
       id="path1980"
       transform="matrix(0.26458333,0,0,0.26458333,80.42839,179.15432)" />
    <path
       style="fill:#deaa87;stroke:none;stroke-width:0;stroke-miterlimit:4;stroke-dasharray:none"
       d="m 164.13172,111.76156 c -0.89772,-2.16729 -2.44353,-2.22323 -3.36784,-0.12189 -0.75908,1.72571 -3.11198,1.83103 -3.99618,0.17889 -0.92247,-1.72366 0.9212,-6.10592 2.88257,-6.85163 2.20103,-0.83683 7.93514,-0.69052 10.21033,0.26052 2.56636,1.07276 3.49883,2.24845 3.94013,4.96784 0.29225,1.80091 0.16724,2.21069 -0.67437,2.21069 -0.56822,0 -1.50527,-0.82974 -2.08234,-1.84387 -1.06454,-1.8708 -3.04783,-2.48717 -3.4808,-1.08177 -0.13046,0.42345 -0.4042,1.53211 -0.60833,2.4637 -0.49096,2.2406 -1.85604,2.15237 -2.82317,-0.18248 z"
       id="path2019"
       transform="matrix(0.26458333,0,0,0.26458333,80.42839,179.15432)" />
    <path
       style="fill:#ffe6d5;stroke:none;stroke-width:0;stroke-miterlimit:4;stroke-dasharray:none"
       d=""
       id="path2058"
       transform="matrix(0.26458333,0,0,0.26458333,80.42839,179.15432)" />
    <path
       style="fill:#deaa87;stroke:none;stroke-width:0;stroke-miterlimit:4;stroke-dasharray:none"
       d="m 50.242443,155.7455 c -1.613971,-2.05183 -1.655194,-4.81722 -0.08817,-5.9148 0.653607,-0.45781 1.367104,-1.54448 1.585547,-2.41483 0.325823,-1.29818 0.140008,-1.65847 -1.034397,-2.00565 l -1.431567,-0.42321 1.539808,-0.6737 c 1.771185,-0.77494 11.357176,-1.03784 12.06886,-0.331 0.887696,0.88165 -0.84393,1.80122 -4.152176,2.20499 -2.999149,0.36603 -3.29726,0.54163 -3.29726,1.94222 0,1.4142 0.251223,1.55386 3.079616,1.71199 4.263116,0.23835 4.954678,0.52949 3.997452,1.68288 -1.297028,1.56282 -8.000953,0.69976 -8.000953,-1.03004 0,-0.28438 -0.720127,-0.51706 -1.600283,-0.51706 -1.592944,0 -1.598317,0.0169 -1.171371,3.69554 0.235902,2.03255 0.283233,3.69554 0.105179,3.69554 -0.178053,0 -0.898181,-0.73029 -1.600283,-1.62287 z"
       id="path2097"
       transform="matrix(0.26458333,0,0,0.26458333,80.42839,179.15432)" />
  </g>
</svg>
